<mxfile host="app.diagrams.net" modified="2023-08-28T12:03:48.830Z" agent="Mozilla/5.0 (X11; Linux x86_64) AppleWebKit/537.36 (KHTML, like Gecko) Chrome/116.0.0.0 Safari/537.36" etag="Z1Yd3Ob0Rkfn41mXnwZy" version="21.6.9" type="device" pages="2">
  <diagram name="Página-1" id="r7Dmp1KG4LVQeCO9yeug">
    <mxGraphModel dx="1354" dy="860" grid="0" gridSize="10" guides="1" tooltips="1" connect="1" arrows="1" fold="1" page="1" pageScale="1" pageWidth="1169" pageHeight="827" background="#ffffff" math="0" shadow="0">
      <root>
        <mxCell id="0" />
        <mxCell id="1" parent="0" />
        <mxCell id="XotN9v1F1lXglz8omoOa-95" value="Empleados" style="whiteSpace=wrap;html=1;align=center;fontSize=20;" parent="1" vertex="1">
          <mxGeometry x="210.5" y="282" width="167.62" height="93.74" as="geometry" />
        </mxCell>
        <mxCell id="XotN9v1F1lXglz8omoOa-100" value="apellido" style="text;html=1;strokeColor=none;fillColor=none;align=center;verticalAlign=middle;whiteSpace=wrap;rounded=0;fontSize=20;" parent="1" vertex="1">
          <mxGeometry x="71" y="303" width="100.57" height="26.58" as="geometry" />
        </mxCell>
        <mxCell id="XotN9v1F1lXglz8omoOa-107" value="Trabaja" style="shape=rhombus;perimeter=rhombusPerimeter;whiteSpace=wrap;html=1;align=center;fontSize=20;" parent="1" vertex="1">
          <mxGeometry x="552" y="286.68" width="117.33" height="79.74" as="geometry" />
        </mxCell>
        <mxCell id="XotN9v1F1lXglz8omoOa-108" value="" style="endArrow=none;html=1;rounded=0;entryX=0;entryY=0.5;entryDx=0;entryDy=0;fontSize=20;" parent="1" target="XotN9v1F1lXglz8omoOa-107" edge="1">
          <mxGeometry relative="1" as="geometry">
            <mxPoint x="381.4761904761904" y="326.54838709677415" as="sourcePoint" />
            <mxPoint x="482.047619047619" y="307.4935483870968" as="targetPoint" />
          </mxGeometry>
        </mxCell>
        <mxCell id="XotN9v1F1lXglz8omoOa-109" value="" style="endArrow=none;html=1;rounded=0;fontSize=20;" parent="1" source="XotN9v1F1lXglz8omoOa-107" target="XotN9v1F1lXglz8omoOa-122" edge="1">
          <mxGeometry relative="1" as="geometry">
            <mxPoint x="666.4285714285713" y="324.81612903225806" as="sourcePoint" />
            <mxPoint x="817.2857142857142" y="326.54838709677415" as="targetPoint" />
          </mxGeometry>
        </mxCell>
        <mxCell id="XotN9v1F1lXglz8omoOa-110" value="(1,N)" style="text;html=1;strokeColor=none;fillColor=none;align=center;verticalAlign=middle;whiteSpace=wrap;rounded=0;fontSize=20;" parent="1" vertex="1">
          <mxGeometry x="378.12" y="294.58" width="50.29" height="27.55" as="geometry" />
        </mxCell>
        <mxCell id="XotN9v1F1lXglz8omoOa-114" value="nombre" style="text;html=1;strokeColor=none;fillColor=none;align=center;verticalAlign=middle;whiteSpace=wrap;rounded=0;fontSize=20;" parent="1" vertex="1">
          <mxGeometry x="71" y="339.84000000000003" width="100.57" height="26.58" as="geometry" />
        </mxCell>
        <mxCell id="XotN9v1F1lXglz8omoOa-115" value="fechaNacimiento" style="text;html=1;strokeColor=none;fillColor=none;align=center;verticalAlign=middle;whiteSpace=wrap;rounded=0;fontSize=20;" parent="1" vertex="1">
          <mxGeometry x="50" y="373.42" width="142.57" height="26.58" as="geometry" />
        </mxCell>
        <mxCell id="XotN9v1F1lXglz8omoOa-116" value="calle" style="text;html=1;strokeColor=none;fillColor=none;align=center;verticalAlign=middle;whiteSpace=wrap;rounded=0;fontSize=20;" parent="1" vertex="1">
          <mxGeometry x="65.00000000000003" y="455.87" width="100.57" height="26.58" as="geometry" />
        </mxCell>
        <mxCell id="XotN9v1F1lXglz8omoOa-117" value="teléfono" style="text;html=1;strokeColor=none;fillColor=none;align=center;verticalAlign=middle;whiteSpace=wrap;rounded=0;fontSize=20;rotation=90;" parent="1" vertex="1">
          <mxGeometry x="210.5" y="202" width="100.57" height="26.58" as="geometry" />
        </mxCell>
        <mxCell id="XotN9v1F1lXglz8omoOa-118" value="cantHijos" style="text;html=1;strokeColor=none;fillColor=none;align=center;verticalAlign=middle;whiteSpace=wrap;rounded=0;fontSize=20;rotation=90;" parent="1" vertex="1">
          <mxGeometry x="277.55" y="216" width="100.57" height="26.58" as="geometry" />
        </mxCell>
        <mxCell id="XotN9v1F1lXglz8omoOa-119" value="fechaIngreso" style="text;html=1;strokeColor=none;fillColor=none;align=center;verticalAlign=middle;whiteSpace=wrap;rounded=0;fontSize=20;rotation=90;" parent="1" vertex="1">
          <mxGeometry x="240" y="209.42000000000002" width="100.57" height="26.58" as="geometry" />
        </mxCell>
        <mxCell id="XotN9v1F1lXglz8omoOa-120" value="email" style="text;html=1;strokeColor=none;fillColor=none;align=center;verticalAlign=middle;whiteSpace=wrap;rounded=0;fontSize=20;rotation=90;" parent="1" vertex="1">
          <mxGeometry x="178.57" y="218" width="100.57" height="26.58" as="geometry" />
        </mxCell>
        <mxCell id="XotN9v1F1lXglz8omoOa-122" value="Áreas" style="whiteSpace=wrap;html=1;align=center;fontSize=20;" parent="1" vertex="1">
          <mxGeometry x="823" y="279.68" width="167.62" height="93.74" as="geometry" />
        </mxCell>
        <mxCell id="XotN9v1F1lXglz8omoOa-126" value="&lt;b&gt;DNI&lt;/b&gt;" style="text;html=1;strokeColor=none;fillColor=none;align=center;verticalAlign=middle;whiteSpace=wrap;rounded=0;fontSize=20;" parent="1" vertex="1">
          <mxGeometry x="78.00000000000006" y="268" width="100.57" height="26.58" as="geometry" />
        </mxCell>
        <mxCell id="XotN9v1F1lXglz8omoOa-127" value="dirección" style="ellipse;whiteSpace=wrap;html=1;align=center;fontSize=20;" parent="1" vertex="1">
          <mxGeometry x="183.57" y="446" width="100" height="40" as="geometry" />
        </mxCell>
        <mxCell id="XotN9v1F1lXglz8omoOa-128" value="número" style="text;html=1;strokeColor=none;fillColor=none;align=center;verticalAlign=middle;whiteSpace=wrap;rounded=0;fontSize=20;" parent="1" vertex="1">
          <mxGeometry x="83.00000000000003" y="486" width="100.57" height="26.58" as="geometry" />
        </mxCell>
        <mxCell id="XotN9v1F1lXglz8omoOa-129" value="piso" style="text;html=1;strokeColor=none;fillColor=none;align=center;verticalAlign=middle;whiteSpace=wrap;rounded=0;fontSize=20;" parent="1" vertex="1">
          <mxGeometry x="130.00000000000003" y="517.1" width="100.57" height="26.58" as="geometry" />
        </mxCell>
        <mxCell id="XotN9v1F1lXglz8omoOa-130" value="" style="endArrow=none;html=1;rounded=0;fontSize=20;" parent="1" source="XotN9v1F1lXglz8omoOa-95" target="XotN9v1F1lXglz8omoOa-127" edge="1">
          <mxGeometry relative="1" as="geometry">
            <mxPoint x="267.9961904761904" y="413.99838709677414" as="sourcePoint" />
            <mxPoint x="438.52" y="414.45" as="targetPoint" />
          </mxGeometry>
        </mxCell>
        <mxCell id="XotN9v1F1lXglz8omoOa-134" value="(0,N)" style="text;html=1;strokeColor=none;fillColor=none;align=center;verticalAlign=middle;whiteSpace=wrap;rounded=0;fontSize=20;" parent="1" vertex="1">
          <mxGeometry x="772.71" y="326.54999999999995" width="50.29" height="27.55" as="geometry" />
        </mxCell>
        <mxCell id="XotN9v1F1lXglz8omoOa-135" value="descripción" style="text;html=1;strokeColor=none;fillColor=none;align=center;verticalAlign=middle;whiteSpace=wrap;rounded=0;fontSize=20;" parent="1" vertex="1">
          <mxGeometry x="1004" y="332" width="100.57" height="26.58" as="geometry" />
        </mxCell>
        <mxCell id="XotN9v1F1lXglz8omoOa-136" value="nomrbe" style="text;html=1;strokeColor=none;fillColor=none;align=center;verticalAlign=middle;whiteSpace=wrap;rounded=0;fontSize=20;" parent="1" vertex="1">
          <mxGeometry x="1004" y="295.55" width="100.57" height="26.58" as="geometry" />
        </mxCell>
        <mxCell id="WQ9w9DxeYSJ5V1wCmxKn-1" style="edgeStyle=orthogonalEdgeStyle;rounded=0;orthogonalLoop=1;jettySize=auto;html=1;exitX=0.5;exitY=1;exitDx=0;exitDy=0;" parent="1" source="XotN9v1F1lXglz8omoOa-129" target="XotN9v1F1lXglz8omoOa-129" edge="1">
          <mxGeometry relative="1" as="geometry" />
        </mxCell>
      </root>
    </mxGraphModel>
  </diagram>
  <diagram id="Ajyg9XRP6oOQawPLSubi" name="Página-2">
    <mxGraphModel dx="880" dy="559" grid="1" gridSize="10" guides="1" tooltips="1" connect="1" arrows="1" fold="1" page="1" pageScale="1" pageWidth="1169" pageHeight="827" math="0" shadow="0">
      <root>
        <mxCell id="0" />
        <mxCell id="1" parent="0" />
        <mxCell id="xqTld_QQDdp2AdgW95IQ-1" value="Disciplina" style="whiteSpace=wrap;html=1;align=center;" vertex="1" parent="1">
          <mxGeometry x="370" y="150" width="100" height="40" as="geometry" />
        </mxCell>
        <mxCell id="xqTld_QQDdp2AdgW95IQ-2" value="abonado" style="whiteSpace=wrap;html=1;align=center;" vertex="1" parent="1">
          <mxGeometry x="80" y="150" width="100" height="40" as="geometry" />
        </mxCell>
        <mxCell id="xqTld_QQDdp2AdgW95IQ-3" value="Realiza" style="shape=rhombus;perimeter=rhombusPerimeter;whiteSpace=wrap;html=1;align=center;" vertex="1" parent="1">
          <mxGeometry x="240" y="150" width="70" height="40" as="geometry" />
        </mxCell>
        <mxCell id="xqTld_QQDdp2AdgW95IQ-4" value="Información de Contacto" style="ellipse;whiteSpace=wrap;html=1;align=center;" vertex="1" parent="1">
          <mxGeometry x="80" y="80" width="80" height="40" as="geometry" />
        </mxCell>
        <mxCell id="xqTld_QQDdp2AdgW95IQ-5" value="apellido" style="text;html=1;strokeColor=none;fillColor=none;align=center;verticalAlign=middle;whiteSpace=wrap;rounded=0;" vertex="1" parent="1">
          <mxGeometry x="10" y="180" width="60" height="20" as="geometry" />
        </mxCell>
        <mxCell id="xqTld_QQDdp2AdgW95IQ-6" value="&lt;b&gt;DNI&lt;/b&gt;" style="text;html=1;strokeColor=none;fillColor=none;align=center;verticalAlign=middle;whiteSpace=wrap;rounded=0;" vertex="1" parent="1">
          <mxGeometry x="10" y="160" width="60" height="20" as="geometry" />
        </mxCell>
        <mxCell id="xqTld_QQDdp2AdgW95IQ-7" value="nombre" style="text;html=1;strokeColor=none;fillColor=none;align=center;verticalAlign=middle;whiteSpace=wrap;rounded=0;rotation=90;" vertex="1" parent="1">
          <mxGeometry x="40" y="210" width="60" height="20" as="geometry" />
        </mxCell>
        <mxCell id="xqTld_QQDdp2AdgW95IQ-8" value="peso" style="text;html=1;strokeColor=none;fillColor=none;align=center;verticalAlign=middle;whiteSpace=wrap;rounded=0;rotation=90;" vertex="1" parent="1">
          <mxGeometry x="60" y="210" width="60" height="20" as="geometry" />
        </mxCell>
        <mxCell id="xqTld_QQDdp2AdgW95IQ-9" value="estatura" style="text;html=1;strokeColor=none;fillColor=none;align=center;verticalAlign=middle;whiteSpace=wrap;rounded=0;" vertex="1" parent="1">
          <mxGeometry x="10" y="140" width="60" height="20" as="geometry" />
        </mxCell>
        <mxCell id="xqTld_QQDdp2AdgW95IQ-10" value="&lt;b&gt;nombre&lt;/b&gt;" style="text;html=1;strokeColor=none;fillColor=none;align=center;verticalAlign=middle;whiteSpace=wrap;rounded=0;flipV=1;flipH=1;rotation=90;" vertex="1" parent="1">
          <mxGeometry x="400" y="110" width="60" height="20" as="geometry" />
        </mxCell>
        <mxCell id="xqTld_QQDdp2AdgW95IQ-11" value="costo" style="text;html=1;strokeColor=none;fillColor=none;align=center;verticalAlign=middle;whiteSpace=wrap;rounded=0;rotation=90;" vertex="1" parent="1">
          <mxGeometry x="374" y="110" width="60" height="20" as="geometry" />
        </mxCell>
        <mxCell id="xqTld_QQDdp2AdgW95IQ-12" value="(1,N)" style="text;html=1;strokeColor=none;fillColor=none;align=center;verticalAlign=middle;whiteSpace=wrap;rounded=0;" vertex="1" parent="1">
          <mxGeometry x="180" y="150" width="30" height="20" as="geometry" />
        </mxCell>
        <mxCell id="xqTld_QQDdp2AdgW95IQ-13" value="(0,N)" style="text;html=1;strokeColor=none;fillColor=none;align=center;verticalAlign=middle;whiteSpace=wrap;rounded=0;" vertex="1" parent="1">
          <mxGeometry x="340" y="150" width="30" height="20" as="geometry" />
        </mxCell>
        <mxCell id="xqTld_QQDdp2AdgW95IQ-14" value="" style="endArrow=none;html=1;rounded=0;exitX=1;exitY=0.5;exitDx=0;exitDy=0;" edge="1" parent="1" source="xqTld_QQDdp2AdgW95IQ-2" target="xqTld_QQDdp2AdgW95IQ-3">
          <mxGeometry relative="1" as="geometry">
            <mxPoint x="290" y="280" as="sourcePoint" />
            <mxPoint x="450" y="280" as="targetPoint" />
          </mxGeometry>
        </mxCell>
        <mxCell id="xqTld_QQDdp2AdgW95IQ-15" value="" style="endArrow=none;html=1;rounded=0;entryX=0;entryY=0.5;entryDx=0;entryDy=0;exitX=1;exitY=0.5;exitDx=0;exitDy=0;" edge="1" parent="1" source="xqTld_QQDdp2AdgW95IQ-3" target="xqTld_QQDdp2AdgW95IQ-1">
          <mxGeometry relative="1" as="geometry">
            <mxPoint x="300" y="290" as="sourcePoint" />
            <mxPoint x="460" y="290" as="targetPoint" />
          </mxGeometry>
        </mxCell>
        <mxCell id="xqTld_QQDdp2AdgW95IQ-16" value="" style="endArrow=none;html=1;rounded=0;exitX=0.5;exitY=1;exitDx=0;exitDy=0;entryX=0.4;entryY=-0.1;entryDx=0;entryDy=0;entryPerimeter=0;" edge="1" parent="1" source="xqTld_QQDdp2AdgW95IQ-4" target="xqTld_QQDdp2AdgW95IQ-2">
          <mxGeometry relative="1" as="geometry">
            <mxPoint x="310" y="300" as="sourcePoint" />
            <mxPoint x="470" y="300" as="targetPoint" />
          </mxGeometry>
        </mxCell>
        <mxCell id="xqTld_QQDdp2AdgW95IQ-17" value="teléfono (0,N)" style="text;html=1;strokeColor=none;fillColor=none;align=center;verticalAlign=middle;whiteSpace=wrap;rounded=0;rotation=0;" vertex="1" parent="1">
          <mxGeometry x="160" y="80" width="80" height="20" as="geometry" />
        </mxCell>
        <mxCell id="xqTld_QQDdp2AdgW95IQ-18" value="domicilio (0,1)" style="text;html=1;strokeColor=none;fillColor=none;align=center;verticalAlign=middle;whiteSpace=wrap;rounded=0;" vertex="1" parent="1">
          <mxGeometry x="160" y="100" width="80" height="20" as="geometry" />
        </mxCell>
        <mxCell id="xqTld_QQDdp2AdgW95IQ-19" value="antecedentes (0,N)" style="text;html=1;strokeColor=none;fillColor=none;align=center;verticalAlign=middle;whiteSpace=wrap;rounded=0;rotation=90;" vertex="1" parent="1">
          <mxGeometry x="100" y="210" width="60" height="40" as="geometry" />
        </mxCell>
      </root>
    </mxGraphModel>
  </diagram>
</mxfile>
